<svg fill="#000000" xmlns="http://www.w3.org/2000/svg" viewBox="0 0 48 48" width="24px" height="24px"><path fill="none" stroke="#000000" stroke-linejoin="round" stroke-miterlimit="10" stroke-width="3" d="M27,17.5h-6	c-1.657,0-3-1.343-3-3v-6c0-1.657,1.343-3,3-3h6c1.657,0,3,1.343,3,3v6C30,16.157,28.657,17.5,27,17.5z"/><path fill="none" stroke="#000000" stroke-linejoin="round" stroke-miterlimit="10" stroke-width="3" d="M15.5,42.5h-6	c-1.657,0-3-1.343-3-3v-6c0-1.657,1.343-3,3-3h6c1.657,0,3,1.343,3,3v6C18.5,41.157,17.157,42.5,15.5,42.5z"/><path fill="none" stroke="#000000" stroke-linejoin="round" stroke-miterlimit="10" stroke-width="3" d="M38.5,42.5h-6	c-1.657,0-3-1.343-3-3v-6c0-1.657,1.343-3,3-3h6c1.657,0,3,1.343,3,3v6C41.5,41.157,40.157,42.5,38.5,42.5z"/><line x1="24" x2="24" y1="17.5" y2="24.5" fill="none" stroke="#000000" stroke-linejoin="round" stroke-miterlimit="10" stroke-width="3"/><path fill="none" stroke="#000000" stroke-linejoin="round" stroke-miterlimit="10" stroke-width="3" d="M12.5,30.5v-3	c0-1.657,1.343-3,3-3h17c1.657,0,3,1.343,3,3v3"/></svg>