<?xml version="1.0" encoding="UTF-8" standalone="no"?>
<!DOCTYPE svg PUBLIC "-//W3C//DTD SVG 1.1//EN" "http://www.w3.org/Graphics/SVG/1.1/DTD/svg11.dtd">
<svg version="1.1" xmlns="http://www.w3.org/2000/svg" xmlns:xlink="http://www.w3.org/1999/xlink" preserveAspectRatio="xMidYMid meet" viewBox="0 0 64 64" width="64" height="64"><defs><path d="M4.24 35.7C4.24 35.13 4.32 21.75 11.23 12.12C12.1 10.92 13.52 10.14 14.99 10.2C16.76 10.29 18.22 11.35 18.86 12.99C18.99 13.58 20.03 18.33 20.16 18.92C20.49 19.79 21.25 19.97 21.5 19.97C21.5 19.97 21.51 19.97 21.52 19.97C21.75 19.97 22.52 19.78 22.85 18.89C23.33 17.3 27.16 4.59 27.64 3C28.11 1.68 29.13 0.55 30.48 0.17C32.82 -0.47 35.03 0.73 35.81 2.88C36.29 4.47 40.15 17.2 40.63 18.79C40.95 19.68 41.73 19.76 41.96 19.76C42.2 19.78 42.97 19.71 43.32 18.82C43.44 18.26 44.42 13.75 44.54 13.19C45.04 11.91 46.02 10.81 47.32 10.41C49.17 9.84 51.04 10.48 52.15 11.99C59.16 21.62 59.24 35.13 59.24 35.7C59.24 51.31 46.9 64 31.74 64C16.57 64 4.24 51.31 4.24 35.7Z" id="bGUarmhn"></path><linearGradient id="gradienta2VHZlcQih" gradientUnits="userSpaceOnUse" x1="31.74" y1="-8.07" x2="31.74" y2="59.49"><stop style="stop-color: #cec1f8;stop-opacity: 1" offset="0%"></stop><stop style="stop-color: #7f5af0;stop-opacity: 1" offset="100%"></stop></linearGradient></defs><g><g><g><use xlink:href="#bGUarmhn" opacity="1" fill="url(#gradienta2VHZlcQih)"></use><g><use xlink:href="#bGUarmhn" opacity="1" fill-opacity="0" stroke="#000000" stroke-width="1" stroke-opacity="0"></use></g></g></g></g></svg>